<svg xmlns="http://www.w3.org/2000/svg" xmlns:xlink="http://www.w3.org/1999/xlink" version="1.1" x="0px" y="0px"
    viewBox="0 0 100 125" xml:space="preserve">
    <path
        d="M70.2,54.348H53.826c-10.987,0-19.895,8.908-19.895,19.895v1.761c0,2.314,1.875,4.192,4.189,4.192h47.786  c2.316,0,4.191-1.878,4.191-4.192v-1.761C90.095,63.256,81.189,54.348,70.2,54.348z" />
    <path
        d="M62.013,50.122c8.372,0,15.16-6.784,15.16-15.158c0-8.372-6.788-15.16-15.16-15.16s-15.16,6.788-15.16,15.16  C46.853,43.338,53.64,50.122,62.013,50.122z" />
    <path
        d="M36.768,45.882c0-1.841-1.492-3.333-3.334-3.333h-6.765v-6.765c0-1.841-1.492-3.334-3.333-3.334  c-1.841,0-3.333,1.494-3.333,3.334v6.765h-6.765c-1.842,0-3.334,1.492-3.334,3.333c0,1.841,1.492,3.334,3.334,3.334h6.765v6.765  c0,1.841,1.492,3.333,3.333,3.333c1.841,0,3.333-1.492,3.333-3.333v-6.765h6.765C35.276,49.216,36.768,47.722,36.768,45.882z" />
</svg>