<svg xmlns="http://www.w3.org/2000/svg" xml:space="preserve" version="1.1"
    style="shape-rendering:geometricPrecision; text-rendering:geometricPrecision; image-rendering:optimizeQuality; fill-rule:evenodd; clip-rule:evenodd"
    viewBox="0 0 500 500" xmlns:xlink="http://www.w3.org/1999/xlink">
    <defs>
        <style type="text/css">
            <![CDATA[
            .fil1 {
                fill: #808080
            }
            ]]>
        </style>
    </defs>
    <g id="Layer_x0020_1">
        <metadata id="CorelCorpID_0Corel-Layer" />
        <path class="fil1"
            d="M229 152c17,17 17,44 0,61 -17,17 -44,17 -61,0 -16,-17 -16,-44 0,-61 17,-16 44,-16 61,0zm-179 -78l400 0c17,0 30,14 30,30 0,100 0,200 0,300 0,12 -10,22 -21,22l-418 0c-11,0 -21,-10 -21,-22 0,-100 0,-200 0,-300 0,-16 14,-30 30,-30zm20 31l360 0c11,0 20,9 20,20l0 153 -38 -38c-25,-25 -66,-25 -91,0l-86 86 -19 -20c-40,-40 -107,-40 -147,0l-19 19 0 -200c0,-11 9,-20 20,-20z" />
    </g>
</svg>